<svg width="21" height="19" viewBox="0 0 21 19" fill="none" xmlns="http://www.w3.org/2000/svg">
<path fill-rule="evenodd" clip-rule="evenodd" d="M10.4998 7.36617C10.8679 7.36617 11.1663 7.65518 11.1663 8.0117V11.4545C11.1663 11.811 10.8679 12.1001 10.4998 12.1001C10.1318 12.1001 9.83336 11.811 9.83336 11.4545V8.0117C9.83336 7.65518 10.1318 7.36617 10.4998 7.36617Z" fill="#EB5757"/>
<path d="M11.3885 14.0366C11.3885 14.512 10.9906 14.8974 10.4998 14.8974C10.0091 14.8974 9.6112 14.512 9.6112 14.0366C9.6112 13.5613 10.0091 13.1759 10.4998 13.1759C10.9906 13.1759 11.3885 13.5613 11.3885 14.0366Z" fill="#EB5757"/>
<path fill-rule="evenodd" clip-rule="evenodd" d="M8.52381 1.89011C9.47836 0.536631 11.5213 0.53663 12.4759 1.89011C13.6595 3.56846 15.3349 6.00985 16.4558 7.92417C17.6324 9.93371 18.9721 12.6843 19.8635 14.5802C20.5651 16.0725 19.5065 17.7638 17.8204 17.8607C15.7431 17.9801 12.7586 18.125 10.4998 18.125C8.2411 18.125 5.25653 17.9801 3.17923 17.8607C1.49314 17.7638 0.434605 16.0725 1.13621 14.5802C2.02759 12.6843 3.36723 9.93371 4.54387 7.92417C5.66476 6.00985 7.34014 3.56846 8.52381 1.89011ZM11.3752 2.61834C10.9499 2.0153 10.0498 2.0153 9.62448 2.61834C8.44233 4.29453 6.7945 6.69752 5.70334 8.56107C4.55815 10.5169 3.23927 13.2224 2.3493 15.1153C2.03718 15.7791 2.50254 16.5285 3.25817 16.5719C5.3332 16.6911 8.28375 16.8339 10.4998 16.8339C12.7159 16.8339 15.6665 16.6911 17.7415 16.5719C18.4971 16.5285 18.9625 15.7791 18.6504 15.1153C17.7604 13.2224 16.4415 10.5169 15.2963 8.56107C14.2052 6.69752 12.5573 4.29453 11.3752 2.61834Z" fill="#EB5757"/>
</svg>
