<svg width="21" height="21" viewBox="0 0 21 21" fill="none" xmlns="http://www.w3.org/2000/svg">
<path fill-rule="evenodd" clip-rule="evenodd" d="M10.4998 2.39086C6.02138 2.39086 2.39086 6.02138 2.39086 10.4998C2.39086 14.9783 6.02138 18.6088 10.4998 18.6088C14.9783 18.6088 18.6088 14.9783 18.6088 10.4998C18.6088 6.02138 14.9783 2.39086 10.4998 2.39086ZM0.916504 10.4998C0.916504 5.20711 5.20711 0.916504 10.4998 0.916504C15.7926 0.916504 20.0832 5.20711 20.0832 10.4998C20.0832 15.7926 15.7926 20.0832 10.4998 20.0832C5.20711 20.0832 0.916504 15.7926 0.916504 10.4998Z" fill="#005FDA"/>
<path fill-rule="evenodd" clip-rule="evenodd" d="M10.4998 6.32249C10.907 6.32249 11.237 6.65253 11.237 7.05967V10.9913C11.237 11.3984 10.907 11.7285 10.4998 11.7285C10.0927 11.7285 9.76266 11.3984 9.76266 10.9913V7.05967C9.76266 6.65253 10.0927 6.32249 10.4998 6.32249Z" fill="#005FDA"/>
<path d="M11.4827 13.94C11.4827 14.4829 11.0427 14.9229 10.4998 14.9229C9.957 14.9229 9.51693 14.4829 9.51693 13.94C9.51693 13.3972 9.957 12.9571 10.4998 12.9571C11.0427 12.9571 11.4827 13.3972 11.4827 13.94Z" fill="#005FDA"/>
</svg>
